M48
;Layer_Color=9474304
;FILE_FORMAT=4:4
METRIC,LZ
;TYPE=NON_PLATED
T1F00S00C0.2500
%
T01
X0021675Y000665
X00223
Y000735
X0021675
X0024175
X00248
Y000665
X0024175
X0026675
X00273
Y000735
X0026675
X002605Y000901
X0025425
Y000971
X002605
X0027925
X002855
Y000901
X0027925
X0030425
X003105
Y000971
X0030425
X00298Y001137
X0029175
Y001207
X00298
X0031675
X00323
Y001137
X0031675
X00313Y001373
X0030675
Y001443
X00313
X0031675Y001609
X00323
Y001679
X0031675
X00298
X0029175
Y001609
X00298
X00273
X0026675
Y001679
X00273
X0027925Y001845
X002855
Y001915
X0027925
X002605
X0025425
Y001845
X002605
X00236Y00185
Y0019125
X00229
Y00185
X00223Y001679
X0021675
Y001609
X00223
X0024175
X00248
Y001679
X0024175
X002355Y001443
X0022925
Y001373
X002355
X0025675
X00263
Y001443
X0025675
X0028175
X00288
Y001373
X0028175
X00273Y001207
X0026675
Y001137
X00273
X00248
X0024175
Y001207
X00248
X00223
X0021675
Y001137
X00223
X0022925Y000971
X002355
Y000901
X0022925
X0029175Y000735
X00298
Y000665
X0029175
X0031675
X00323
Y000735
X0031675
X003105Y001845
X0030425
Y001915
X003105
X00298Y002081
X0029175
Y002151
X00298
X00273
X0026675
Y002081
X00273
X00248
X0024175
Y002151
X00248
X0025425Y002317
X002605
Y002387
X0025425
X0027925Y002387
X002855
Y002317
X0027925
M30
