G04*
G04 #@! TF.GenerationSoftware,Altium Limited,Altium Designer,21.8.1 (53)*
G04*
G04 Layer_Physical_Order=1*
G04 Layer_Color=255*
%FSLAX44Y44*%
%MOMM*%
G71*
G04*
G04 #@! TF.SameCoordinates,45D3A170-7DB9-4D8C-A4E1-16A1BD59D4D6*
G04*
G04*
G04 #@! TF.FilePolarity,Positive*
G04*
G01*
G75*
%ADD10C,1.6000*%
%ADD11R,0.3000X1.0000*%
%ADD12R,0.3000X0.7000*%
%ADD13C,0.2500*%
D10*
X282500Y93600D02*
D03*
X257500D02*
D03*
X232500D02*
D03*
X270000Y70000D02*
D03*
X295000D02*
D03*
X245000D02*
D03*
X320000D02*
D03*
X220000D02*
D03*
X310000Y140800D02*
D03*
X285000D02*
D03*
X320000Y117200D02*
D03*
X295000D02*
D03*
X270000D02*
D03*
X245000D02*
D03*
X220000D02*
D03*
X307500Y93600D02*
D03*
X320000Y164400D02*
D03*
X295000D02*
D03*
X270000D02*
D03*
X245000D02*
D03*
X220000D02*
D03*
X232500Y140800D02*
D03*
X282500Y235200D02*
D03*
X260000Y140800D02*
D03*
X257500Y235200D02*
D03*
X295000Y211600D02*
D03*
X270000D02*
D03*
X245000D02*
D03*
X307500Y188000D02*
D03*
X282500D02*
D03*
X257500D02*
D03*
X232500D02*
D03*
D11*
X184600Y301250D02*
D03*
X355400D02*
D03*
D12*
X192500Y274750D02*
D03*
X197500D02*
D03*
X202500D02*
D03*
X207500D02*
D03*
X212500D02*
D03*
X217500D02*
D03*
X222500D02*
D03*
X227500D02*
D03*
X232500D02*
D03*
X237500D02*
D03*
X242500D02*
D03*
X247500D02*
D03*
X252500D02*
D03*
X257500D02*
D03*
X262500D02*
D03*
X267500D02*
D03*
X272500D02*
D03*
X277500D02*
D03*
X282500D02*
D03*
X287500D02*
D03*
X292500D02*
D03*
X297500D02*
D03*
X302500D02*
D03*
X307500D02*
D03*
X312500D02*
D03*
X317500D02*
D03*
X322500D02*
D03*
X327500D02*
D03*
X332500D02*
D03*
X337500D02*
D03*
X342500D02*
D03*
X347500D02*
D03*
D13*
X297500Y268250D02*
Y274750D01*
X292500Y268250D02*
Y274750D01*
X287500Y268250D02*
Y274750D01*
X282500Y268250D02*
Y274750D01*
X277500Y268250D02*
Y274750D01*
X272500Y268250D02*
Y274750D01*
X361000Y285500D02*
X367750Y278750D01*
X322500Y281750D02*
X326250Y285500D01*
X361000D01*
X176250Y285750D02*
X228250D01*
X232500Y281500D01*
X172250Y281750D02*
X176250Y285750D01*
X257500Y205250D02*
Y219250D01*
X320500Y291500D02*
X364750D01*
X373750Y282500D01*
X312500Y283500D02*
X320500Y291500D01*
X354000Y274750D02*
X361750Y267000D01*
X347500Y274750D02*
X354000D01*
X197500Y269750D02*
Y274750D01*
X184250Y118000D02*
Y256500D01*
X197500Y269750D01*
X190250Y127250D02*
Y255000D01*
X202500Y267250D02*
Y274750D01*
X190250Y255000D02*
X202500Y267250D01*
X196250Y253750D02*
X207500Y265000D01*
Y274750D01*
X196250Y137750D02*
Y253750D01*
X212500Y262500D02*
Y274750D01*
X202250Y252250D02*
X212500Y262500D01*
X202250Y146000D02*
Y252250D01*
X217500Y259750D02*
Y274750D01*
X207750Y250000D02*
X217500Y259750D01*
X207750Y154750D02*
Y250000D01*
X213250Y247750D02*
X222500Y257000D01*
X213250Y174776D02*
Y247750D01*
X222500Y257000D02*
Y274750D01*
X190250D02*
X192500D01*
X178250Y262750D02*
X190250Y274750D01*
X219500Y246250D02*
X227500Y254250D01*
X219500Y182500D02*
Y246250D01*
X227500Y254250D02*
Y274750D01*
X237500Y256500D02*
Y274750D01*
X226250Y196579D02*
Y245250D01*
X237500Y256500D01*
X232250Y243500D02*
X247500Y258750D01*
X232250Y203465D02*
Y243500D01*
X247500Y258750D02*
Y274750D01*
X226250Y196579D02*
X232500Y190329D01*
X233715Y202000D02*
X236250D01*
X232250Y203465D02*
X233715Y202000D01*
X245000Y211600D02*
Y214065D01*
X239250Y219814D02*
X245000Y214065D01*
X239250Y219814D02*
Y242500D01*
X257500Y260750D01*
Y274543D01*
X262500Y257750D02*
Y274750D01*
X245250Y228828D02*
Y240500D01*
X262500Y257750D01*
X260033Y237733D02*
Y244284D01*
X267500Y251750D02*
Y274750D01*
X257500Y235200D02*
X260033Y237733D01*
Y244284D02*
X267500Y251750D01*
X270000Y245500D02*
X272500Y248000D01*
Y268250D01*
X270000Y211600D02*
Y245500D01*
X245250Y228828D02*
X247750Y226328D01*
X243563Y69437D02*
X244750Y70625D01*
X243000Y66000D02*
Y70000D01*
X232500Y274750D02*
Y281500D01*
X172250Y92250D02*
Y281750D01*
X166250Y285000D02*
X172750Y291500D01*
X234750D01*
X242500Y283750D01*
X252500Y274750D02*
Y287750D01*
X282500Y235200D02*
Y238414D01*
X277500Y243414D02*
X282500Y238414D01*
X277500Y243414D02*
Y268250D01*
X302500Y287750D02*
X316000Y301250D01*
X355400D01*
X367750D02*
X379750Y289250D01*
X355400Y301250D02*
X367750D01*
X238500Y301750D02*
X252500Y287750D01*
X173500Y301750D02*
X238500D01*
X242500Y274750D02*
Y283750D01*
X166250Y85000D02*
Y285000D01*
X160250Y288500D02*
X173500Y301750D01*
X160250Y76000D02*
Y288500D01*
X297500Y263750D02*
Y268250D01*
Y263750D02*
X312750Y248500D01*
X342500Y269250D02*
Y274750D01*
Y269250D02*
X347750Y264000D01*
Y245500D02*
Y264000D01*
X361750Y97500D02*
Y267000D01*
X347750Y245500D02*
X355750Y237500D01*
Y103500D02*
Y237500D01*
X337500Y266500D02*
Y274750D01*
Y266500D02*
X342250Y261750D01*
Y242750D02*
Y261750D01*
Y242750D02*
X349750Y235250D01*
Y113750D02*
Y235250D01*
X332500Y264000D02*
X336750Y259750D01*
Y240000D02*
Y259750D01*
Y240000D02*
X343750Y233000D01*
X332500Y264000D02*
Y274750D01*
X327500Y260750D02*
X330750Y257500D01*
Y237250D02*
Y257500D01*
Y237250D02*
X338250Y229750D01*
X327500Y260750D02*
Y274750D01*
X307500Y262250D02*
Y263500D01*
X318750Y234750D02*
Y251000D01*
X307500Y262250D02*
X318750Y251000D01*
X307500Y263500D02*
Y269250D01*
X300750Y226250D02*
Y242750D01*
X287500Y256000D02*
Y260500D01*
Y256000D02*
X300750Y242750D01*
X292500Y259750D02*
Y268250D01*
Y259750D02*
X306750Y245500D01*
Y228500D02*
Y245500D01*
X324750Y235500D02*
X332750Y227500D01*
X317500Y262250D02*
X324750Y255000D01*
Y235500D02*
Y255000D01*
X318750Y234750D02*
X326500Y227000D01*
X317500Y262250D02*
Y274750D01*
X312750Y231000D02*
Y248500D01*
X343750Y129750D02*
Y233000D01*
X332750Y156250D02*
Y227500D01*
X307500Y267198D02*
Y274750D01*
X312750Y231000D02*
X320500Y223250D01*
X306750Y228500D02*
X314000Y221250D01*
X300750Y226250D02*
X308000Y219000D01*
X282500Y252250D02*
X294750Y240000D01*
Y218327D02*
Y240000D01*
X282500Y252250D02*
Y268250D01*
X322500Y274750D02*
Y281750D01*
X312500Y274750D02*
Y283500D01*
X302500Y274015D02*
Y287750D01*
X367750Y84500D02*
Y278750D01*
X373750Y70500D02*
Y282500D01*
X366500Y50750D02*
X379750Y64000D01*
X270000Y61000D02*
X280250Y50750D01*
X366500D01*
X295000Y64250D02*
X302250Y57000D01*
X360250D02*
X373750Y70500D01*
X302250Y57000D02*
X360250D01*
X338250Y228000D02*
Y229750D01*
X326500Y172575D02*
Y227000D01*
X320500Y182250D02*
Y223250D01*
X314000Y198126D02*
Y221250D01*
X287500Y260250D02*
Y268250D01*
X236250Y202000D02*
X239750Y198500D01*
X232500Y188000D02*
Y190329D01*
X258000Y203000D02*
Y204750D01*
X257500Y205250D02*
X258000Y204750D01*
X261250Y200750D02*
X262500D01*
X258000Y203000D02*
X259250Y201750D01*
X260250D01*
X261250Y200750D01*
X253000Y222750D02*
X255000Y220750D01*
X256000D02*
X257500Y219250D01*
X255000Y220750D02*
X256000D01*
X196250Y137750D02*
X203000Y131000D01*
X219750D01*
X220000Y131250D01*
X221750D01*
X222000Y131000D02*
X222715D01*
X221750Y131250D02*
X222000Y131000D01*
X222715D02*
X224214Y129500D01*
X225250D01*
X227000Y127750D01*
X229250D01*
X230000Y127000D01*
X234500D01*
X236250Y128750D02*
X238500D01*
X234500Y127000D02*
X236250Y128750D01*
X238500D02*
X240250Y130500D01*
X241750D01*
X244000Y132750D01*
X247000D01*
X247750Y132000D01*
X248500D01*
X251000Y129500D01*
X252000D01*
X254250Y127250D01*
X255250D01*
X255840Y126660D01*
X257910D02*
X258000Y126750D01*
X255840Y126660D02*
X257910D01*
X258000Y126750D02*
X259750D01*
X261750Y128750D01*
X265750D01*
X268500Y131500D01*
X271750D02*
X273000Y132750D01*
X268500Y131500D02*
X271750D01*
X284483Y140800D02*
X285000D01*
X276433Y132750D02*
X284483Y140800D01*
X273000Y132750D02*
X276433D01*
X208000Y154750D02*
X213750Y149000D01*
X220750D02*
X224250Y152500D01*
X213750Y149000D02*
X220750D01*
X256347Y140800D02*
X260000D01*
X224250Y152500D02*
X224750D01*
X225750Y153500D01*
X226750D01*
X227500Y154250D01*
X229500D01*
X229965Y154714D02*
X232036D01*
X232500Y154250D01*
X229500D02*
X229965Y154714D01*
X232500Y154250D02*
X235000D01*
X235750Y153500D01*
X236250D02*
X237750Y152000D01*
X235750Y153500D02*
X236250D01*
X237750Y152000D02*
X239250D01*
X240250Y151000D01*
X241750D01*
X242500Y150250D01*
X243500D02*
X245000Y148750D01*
X242500Y150250D02*
X243500D01*
X245000Y148750D02*
X247500D01*
X249500Y146750D01*
X250397D01*
X256347Y140800D01*
X332750Y152000D02*
Y157250D01*
X310200Y141000D02*
X321750D01*
X310000Y140800D02*
X310200Y141000D01*
X321750D02*
X332750Y152000D01*
X326500Y131500D02*
X338250Y143250D01*
Y176000D01*
X321500Y131500D02*
X326500D01*
X320750Y130750D02*
X321500Y131500D01*
X317750Y129500D02*
X319000Y130750D01*
X320750D01*
X314000Y128250D02*
X315250Y129500D01*
X317750D01*
X312250Y127500D02*
X313000Y128250D01*
X314000D01*
X312000Y127500D02*
X312250D01*
X310250Y125750D02*
X312000Y127500D01*
X307500Y125750D02*
X310250D01*
X306250Y124500D02*
X307500Y125750D01*
X297017Y117200D02*
X304317Y124500D01*
X306250D01*
X295000Y117200D02*
X297017D01*
X338250Y175000D02*
Y228000D01*
X331200Y117200D02*
X343750Y129750D01*
X337750Y101750D02*
X349750Y113750D01*
X345850Y93600D02*
X355750Y103500D01*
X349000Y84750D02*
X361750Y97500D01*
X353250Y70000D02*
X367750Y84500D01*
X320000Y70000D02*
X353250D01*
X379750Y64000D02*
Y289250D01*
X247750Y226250D02*
Y226328D01*
Y226250D02*
X249500Y224500D01*
X249922D01*
X251672Y222750D01*
X253000D01*
X262500Y200750D02*
X263000Y200250D01*
X264000D01*
X265500Y198750D01*
X266500D01*
X267750Y197500D01*
X269000D01*
X270000Y196500D01*
Y164400D02*
Y196500D01*
X219500Y182500D02*
X226500Y175500D01*
X213250Y174776D02*
X220000Y168026D01*
X202250Y146000D02*
X207450Y140800D01*
X232500D01*
X225500Y81500D02*
X226750D01*
X223750Y83250D02*
X225500Y81500D01*
X226750D02*
X228750Y79500D01*
X223250Y83250D02*
X223750D01*
X228750Y79500D02*
X235000D01*
X221500Y85000D02*
X223250Y83250D01*
X200000Y117500D02*
X219700D01*
X220000Y117200D01*
X190250Y127250D02*
X200000Y117500D01*
X200000Y102250D02*
X219500D01*
X184250Y118000D02*
X200000Y102250D01*
X220250Y103000D02*
X222000D01*
X219500Y102250D02*
X220250Y103000D01*
X222000D02*
X222750Y103750D01*
X223750D02*
X224500Y104500D01*
X222750Y103750D02*
X223750D01*
X224500Y104500D02*
X225250D01*
X226500Y105750D01*
X226750D01*
X228500Y107500D01*
X229750D01*
X231000Y108750D02*
X236550D01*
X229750Y107500D02*
X231000Y108750D01*
X236550D02*
X245000Y117200D01*
X178250Y106750D02*
Y107750D01*
Y106750D02*
X189400Y95600D01*
X178250Y107000D02*
Y262750D01*
X179500Y85000D02*
X221500D01*
X172250Y92250D02*
X179500Y85000D01*
X166250Y85000D02*
X181250Y70000D01*
X160250Y76000D02*
X181000Y55250D01*
X239750Y198500D02*
X247000D01*
X257500Y188000D01*
X320000Y117200D02*
X331200D01*
X322750Y101750D02*
X337750D01*
X321250Y103250D02*
X322750Y101750D01*
X318750Y103250D02*
X321250D01*
X317250Y104750D02*
X318750Y103250D01*
X315750Y104750D02*
X317250D01*
X315000Y105500D02*
X315750Y104750D01*
X309750Y108000D02*
X312250Y105500D01*
X315000D01*
X306500Y108000D02*
X309750D01*
X302750Y106250D02*
X304750D01*
X306500Y108000D01*
X300250Y103750D02*
X302750Y106250D01*
X297500Y103750D02*
X300250D01*
X296000Y102250D02*
X297500Y103750D01*
X293500Y102250D02*
X296000D01*
X292000Y103750D02*
X293500Y102250D01*
X287750Y107000D02*
X291000Y103750D01*
X292000D01*
X283750Y108500D02*
X285250Y107000D01*
X287750D01*
X278700Y108500D02*
X283750D01*
X270000Y117200D02*
X278700Y108500D01*
X314828Y81250D02*
X316000Y82422D01*
Y82500D02*
X318250Y84750D01*
X316000Y82422D02*
Y82500D01*
X312500Y81250D02*
X314828D01*
X310250Y79000D02*
X312500Y81250D01*
X305750Y79000D02*
X310250D01*
X307500Y93600D02*
X345850D01*
X318250Y84750D02*
X349000D01*
X189400Y95600D02*
X227257D01*
X181250Y70000D02*
X220000D01*
X320000Y166075D02*
X326500Y172575D01*
X320000Y164400D02*
Y166075D01*
X314000Y175750D02*
X320500Y182250D01*
X307500Y191626D02*
X314000Y198126D01*
X304000Y200000D02*
X308000Y204000D01*
Y219000D01*
X235000Y79500D02*
X236250Y80750D01*
X238250D01*
X240000Y82500D01*
X240500D01*
X243750Y85750D01*
X249650D01*
X302853Y168103D02*
X310500Y175750D01*
X314000D01*
X298788Y164400D02*
X302491Y168103D01*
X295000Y164400D02*
X298788D01*
X302491Y168103D02*
X302853D01*
X181000Y55250D02*
X232250D01*
X226500Y175500D02*
X227250D01*
X229250Y173500D01*
X235900D01*
X245000Y164400D01*
X220000D02*
Y168026D01*
X307500Y188000D02*
Y191626D01*
X297000Y197250D02*
X299750Y200000D01*
X304000D01*
X282500Y188000D02*
X291750Y197250D01*
X297000D01*
X270000Y61000D02*
Y70000D01*
X302750Y82000D02*
X305750Y79000D01*
X296500Y82000D02*
X302750D01*
X282500Y93600D02*
X284900D01*
X296500Y82000D01*
X249650Y85750D02*
X257500Y93600D01*
X295000Y64250D02*
Y70000D01*
X232250Y55250D02*
X243000Y66000D01*
X282500Y188000D02*
X287500D01*
M02*
